<?xml version="1.0" encoding="utf-8"?>
<!-- Generator: Adobe Illustrator 24.0.0, SVG Export Plug-In . SVG Version: 6.00 Build 0)  -->
<svg version="1.1" id="Calque_1" xmlns="http://www.w3.org/2000/svg" xmlns:xlink="http://www.w3.org/1999/xlink" x="0px" y="0px"
	 viewBox="0 0 179.1 141.76" style="enable-background:new 0 0 179.1 141.76;" xml:space="preserve">
<style type="text/css">
	.st0{fill:none;stroke:#F9B233;stroke-width:3;stroke-miterlimit:10;}
	.st1{fill:none;stroke:#F9B233;stroke-width:3;stroke-linecap:round;stroke-miterlimit:10;}
</style>
<g>
	<circle class="st0" cx="126.64" cy="58.51" r="27.73"/>
	<path class="st0" d="M176.5,140.09c-1.09-28.28-22.54-53.85-48.86-53.85s-47.77,25.56-48.86,53.85H176.5z"/>
	<path class="st0" d="M39.04,140.09H5.82c-2.37,0-4.32-1.94-4.32-2.16v-12.24c0-4.53,1.94-6.48,4.32-6.48h33.23
		c2.37,0,4.32,1.94,4.32,4.32v12.24C43.36,138.14,41.42,140.09,39.04,140.09z"/>
	<line class="st1" x1="177.6" y1="140.26" x2="8.09" y2="140.26"/>
	<path class="st0" d="M28.09,117.66c0.34-10.53-0.76-30,14.39-39.49c0.8-0.5,0.11-0.19,1-0.62"/>
	<circle class="st0" cx="52.03" cy="70.36" r="11.84"/>
	<path class="st0" d="M122.33,88.85l-3.63,39.57c-0.08,0.89,0.2,1.78,0.79,2.46l5.74,6.61c1.28,1.48,3.56,1.52,4.9,0.08l6.19-6.65
		c0.65-0.7,0.97-1.65,0.86-2.6l-4.34-39.47"/>
	<path class="st0" d="M82.11,20.74c0-10.58-8.66-19.24-19.24-19.24H27.58C17,1.5,8.34,10.16,8.34,20.74v0
		c0,9.83,5.41,17.95,14.96,19.05l2.07,0.16h1.15c0.35,0.02,0.71,0.03,1.07,0.03h35.29c0.36,0,0.71-0.01,1.07-0.03h17.93l0.24-16.11
		C82.27,22.85,82.11,21.77,82.11,20.74L82.11,20.74z"/>
</g>
</svg>
