<?xml version="1.0" encoding="utf-8"?>
<!-- Generator: Adobe Illustrator 24.0.0, SVG Export Plug-In . SVG Version: 6.00 Build 0)  -->
<svg version="1.1" id="Calque_1" xmlns="http://www.w3.org/2000/svg" xmlns:xlink="http://www.w3.org/1999/xlink" x="0px" y="0px"
	 viewBox="0 0 24 24" style="enable-background:new 0 0 24 24;" xml:space="preserve">
<style type="text/css">
	.st0{fill:none;stroke:url(#SVGID_1_);stroke-width:2;stroke-linecap:round;stroke-linejoin:round;}
	.st1{fill:none;stroke:url(#SVGID_2_);stroke-width:2;stroke-linecap:round;stroke-linejoin:round;}
</style>
<linearGradient id="SVGID_1_" gradientUnits="userSpaceOnUse" x1="4.7012" y1="3.1567" x2="19.2989" y2="17.7544">
	<stop  offset="0" style="stop-color:#FDBD30"/>
	<stop  offset="1" style="stop-color:#C66137"/>
</linearGradient>
<path class="st0" d="M21,10c0,7-9,13-9,13s-9-6-9-13c0-2.4,0.9-4.7,2.6-6.4S9.6,1,12,1c2.4,0,4.7,0.9,6.4,2.6C20.1,5.3,21,7.6,21,10
	z"/>
<linearGradient id="SVGID_2_" gradientUnits="userSpaceOnUse" x1="9.1716" y1="7.1716" x2="14.8284" y2="12.8284">
	<stop  offset="0" style="stop-color:#FDBD30"/>
	<stop  offset="1" style="stop-color:#C66137"/>
</linearGradient>
<path class="st1" d="M12,13c1.7,0,3-1.3,3-3c0-1.7-1.3-3-3-3s-3,1.3-3,3C9,11.7,10.3,13,12,13z"/>
</svg>
