<svg id="Calque_1" data-name="Calque 1" xmlns="http://www.w3.org/2000/svg" xmlns:xlink="http://www.w3.org/1999/xlink" viewBox="0 0 21.9 21.9"><defs><style>.cls-1{fill:url(#Dégradé_sans_nom);}</style><linearGradient id="Dégradé_sans_nom" x1="1.35" y1="22.48" x2="21.51" y2="2.31" gradientTransform="matrix(1, 0, 0, -1, 0, 25)" gradientUnits="userSpaceOnUse"><stop offset="0" stop-color="#fdbd30"/><stop offset="0.99" stop-color="#c66137"/></linearGradient></defs><title>icon_phone</title><path class="cls-1" d="M19.8,22.9a20,20,0,0,1-9.15-3.26,20.08,20.08,0,0,1-6.3-6.31,21.58,21.58,0,0,1-3.24-9.1.57.57,0,0,1,0-.13,2.85,2.85,0,0,1,.17-1.17,2.63,2.63,0,0,1,.62-1A2.72,2.72,0,0,1,3,1.25l.16-.05a2.6,2.6,0,0,1,1-.2h3a2.91,2.91,0,0,1,2,.74,2.85,2.85,0,0,1,1,1.76,12,12,0,0,0,.67,2.68,3.44,3.44,0,0,1,.12,1.76,3.85,3.85,0,0,1-.76,1.37l-.75.75a14.51,14.51,0,0,0,4.58,4.58l.75-.75a2.48,2.48,0,0,1,1.58-.79,2.29,2.29,0,0,1,1.65.19,12.17,12.17,0,0,0,2.48.62A2.9,2.9,0,0,1,22.3,15a3.12,3.12,0,0,1,.7,1.9v3a3.29,3.29,0,0,1-1,2.21,2.64,2.64,0,0,1-1.1.64A3.12,3.12,0,0,1,19.8,22.9ZM3.1,4A19.53,19.53,0,0,0,6,12.25,17.9,17.9,0,0,0,11.73,18a18,18,0,0,0,8.17,3,1.12,1.12,0,0,0,.38-.06.61.61,0,0,0,.31-.16.91.91,0,0,0,.26-.31.75.75,0,0,1,.06-.13A1,1,0,0,0,21,19.9v-3a1.11,1.11,0,0,0-.3-.7.88.88,0,0,0-.6-.32,13.49,13.49,0,0,1-2.91-.73,1.15,1.15,0,0,1-.25-.12h0a1.48,1.48,0,0,0-.28,0l-.24,0s-.09,0-.29.21l-1.3,1.3a1,1,0,0,1-1.2.16,16.57,16.57,0,0,1-6.38-6.38,1,1,0,0,1,.16-1.2l1.3-1.3A1.66,1.66,0,0,0,9,7.38a2.66,2.66,0,0,0-.12-.64A13.59,13.59,0,0,1,8.1,3.8a.78.78,0,0,0-.3-.5l-.11-.09A.92.92,0,0,0,7.1,3h-3a1,1,0,0,0-.29.08l-.19.07c-.23.07-.27.11-.31.16s-.09.08-.16.31a1.39,1.39,0,0,1-.06.13A1.8,1.8,0,0,1,3.1,4Z" transform="translate(-1.1 -1)"/></svg>