<?xml version="1.0" encoding="utf-8"?>
<!-- Generator: Adobe Illustrator 24.0.0, SVG Export Plug-In . SVG Version: 6.00 Build 0)  -->
<svg version="1.1" id="Calque_1" xmlns="http://www.w3.org/2000/svg" xmlns:xlink="http://www.w3.org/1999/xlink" x="0px" y="0px"
	 viewBox="0 0 155.34 117.45" style="enable-background:new 0 0 155.34 117.45;" xml:space="preserve">
<style type="text/css">
	.st0{fill:none;stroke:#F9B233;stroke-width:3;stroke-miterlimit:10;}
	.st1{fill:none;stroke:#F9B233;stroke-width:3;stroke-linecap:round;stroke-miterlimit:10;}
</style>
<g>
	<path class="st0" d="M153.84,14.77v62.78c0,3.3-2.67,5.97-5.97,5.97h-7.89c-3.03,0-5.7-1.98-6.58-4.88l-16.9-55.65
		c-1.06-3.5,1.11-7.15,4.69-7.88l26.4-5.42C150.82,9.01,153.84,11.48,153.84,14.77z"/>
	<path class="st0" d="M6.73,1.63l21.43,5.36c3.16,0.79,5.16,3.91,4.55,7.11L22.23,69.08c-0.63,3.28-3.5,5.66-6.84,5.66h-7.4
		c-3.59,0-6.49-2.91-6.49-6.49V5.71C1.5,2.97,4.07,0.96,6.73,1.63z"/>
	<line class="st1" x1="67.52" y1="92.22" x2="83.69" y2="112.59"/>
	<line class="st1" x1="80.74" y1="83.51" x2="99.96" y2="106.5"/>
	<line class="st1" x1="90.35" y1="69.91" x2="111.95" y2="96.83"/>
	<line class="st0" x1="84.6" y1="8.83" x2="116.23" y2="26.21"/>
	<line class="st0" x1="32.82" y1="16.73" x2="65.6" y2="16.73"/>
	<path class="st0" d="M23.2,64c6.33,8.23,18.84,21.98,27.48,31c10.66,11.13,13.87,19.26,23.17,20.78c5.14,0.84,6.91-1.82,9.85-3.19
		c2.85,2.24,7.52,3.46,10.48,1.54c2.68-1.73,4.12-4.92,3.69-8.16c3.44,1.32,7.29,0.72,10-1.58c3.39-2.87,3.43-7.04,3.42-7.63
		c0.78,0.1,5.42,0.62,8.42-2.37c3.48-3.47,3.56-10.45-1.05-15.8C106.19,65.1,93.73,51.61,81.27,38.12"/>
	<path class="st0" d="M85.57,9.27c-2.14-1.05-5.35-2.16-8.95-1.58c-2.45,0.4-5.46,1.64-14.57,13.51C55,30.4,52.39,35.39,51.17,41.04
		c-0.76,3.5-0.72,6,0.7,7.9c2.14,2.85,6.28,2.82,7.2,2.81c4.59-0.04,7.6-3.04,8.42-3.86c2.51-2.5,3.37-5.34,3.69-6.67
		c1.37-1.22,4.33-3.5,8.6-4.04c1.39-0.17,6.41,7.67,7.61,6.73"/>
	<line class="st0" x1="122.34" y1="83.37" x2="131.44" y2="74.73"/>
</g>
</svg>
