<?xml version="1.0" encoding="utf-8"?>
<!-- Generator: Adobe Illustrator 24.0.0, SVG Export Plug-In . SVG Version: 6.00 Build 0)  -->
<svg version="1.1" id="Calque_1" xmlns="http://www.w3.org/2000/svg" xmlns:xlink="http://www.w3.org/1999/xlink" x="0px" y="0px"
	 viewBox="0 0 24 50" style="enable-background:new 0 0 24 50;" xml:space="preserve">
<style type="text/css">
	.st0{fill:none;stroke:url(#SVGID_1_);stroke-linecap:round;stroke-linejoin:round;stroke-miterlimit:10;}
	.st1{fill:none;stroke:url(#SVGID_2_);stroke-linecap:round;stroke-linejoin:round;stroke-miterlimit:10;}
	.st2{fill:url(#SVGID_3_);}
	.st3{fill:url(#SVGID_4_);}
</style>
<linearGradient id="SVGID_1_" gradientUnits="userSpaceOnUse" x1="-3.073114e-02" y1="6.2248" x2="23.8284" y2="30.0839">
	<stop  offset="0" style="stop-color:#FDBD30"/>
	<stop  offset="1" style="stop-color:#C66137"/>
</linearGradient>
<path class="st0" d="M14.5,35.3H9.3C4.8,35.3,1,31.6,1,27V9.3C1,4.8,4.8,1,9.3,1h5.1c4.6,0,8.3,3.8,8.3,8.3V27
	C22.8,31.6,19,35.3,14.5,35.3L14.5,35.3z"/>
<linearGradient id="SVGID_2_" gradientUnits="userSpaceOnUse" x1="8.7872" y1="6.8981" x2="15.0109" y2="13.1218">
	<stop  offset="0" style="stop-color:#FDBD30"/>
	<stop  offset="1" style="stop-color:#C66137"/>
</linearGradient>
<path class="st1" d="M12,14.7h-0.2c-0.5,0-1-0.2-1.3-0.6c-0.4-0.4-0.5-0.8-0.6-1.3V7.2c0-1,0.8-1.9,1.9-1.9H12c1,0,1.9,0.8,1.9,1.9
	v5.6C13.9,13.8,13,14.7,12,14.7L12,14.7z"/>
<linearGradient id="SVGID_3_" gradientUnits="userSpaceOnUse" x1="9.158" y1="37.6301" x2="14.7007" y2="43.1729">
	<stop  offset="0" style="stop-color:#FDBD30"/>
	<stop  offset="1" style="stop-color:#C66137"/>
</linearGradient>
<path class="st2" d="M17.1,40c-0.2-0.2-0.5-0.2-0.7,0l-4.5,4.5L7.4,40c-0.2-0.2-0.5-0.2-0.7,0s-0.2,0.5,0,0.7l4.8,4.8
	c0.1,0.1,0.2,0.1,0.4,0.1c0,0,0,0,0,0c0,0,0,0,0,0c0.1,0,0.3,0,0.4-0.1l4.8-4.8C17.3,40.6,17.3,40.2,17.1,40z"/>
<linearGradient id="SVGID_4_" gradientUnits="userSpaceOnUse" x1="10.0851" y1="44.4017" x2="13.7738" y2="48.0905">
	<stop  offset="0" style="stop-color:#FDBD30"/>
	<stop  offset="1" style="stop-color:#C66137"/>
</linearGradient>
<path class="st3" d="M15.3,45.9c-0.2-0.2-0.5-0.2-0.7,0l-2.6,2.6l-2.6-2.6c-0.2-0.2-0.5-0.2-0.7,0s-0.2,0.5,0,0.7l3,3
	c0.1,0.1,0.2,0.1,0.4,0.1c0,0,0,0,0,0c0,0,0,0,0,0c0.1,0,0.3,0,0.4-0.1l3-3C15.5,46.4,15.5,46.1,15.3,45.9z"/>
</svg>
