<?xml version="1.0" encoding="utf-8"?>
<!-- Generator: Adobe Illustrator 24.0.0, SVG Export Plug-In . SVG Version: 6.00 Build 0)  -->
<svg version="1.1" id="Layer_2" xmlns="http://www.w3.org/2000/svg" xmlns:xlink="http://www.w3.org/1999/xlink" x="0px" y="0px"
	 viewBox="0 0 278.1 283" style="enable-background:new 0 0 278.1 283;" xml:space="preserve">
<style type="text/css">
	.st0{fill:url(#SVGID_1_);}
	.st1{fill:url(#SVGID_2_);}
</style>
<title>mes_icones-b</title>
<linearGradient id="SVGID_1_" gradientUnits="userSpaceOnUse" x1="121.7558" y1="122.7079" x2="156.3588" y2="157.3109">
	<stop  offset="0" style="stop-color:#FDBD30"/>
	<stop  offset="1" style="stop-color:#C66137"/>
</linearGradient>
<path class="st0" d="M115.9,134.7l10.8,7.9l-4.1,12.8c-0.6,1.9,0.4,4,2.3,4.6c1.1,0.4,2.4,0.2,3.3-0.5l10.9-7.9l10.8,7.9
	c1.6,1.2,3.9,0.8,5.1-0.8c0.7-0.9,0.9-2.2,0.5-3.3l-4.1-12.8l10.9-7.9c1.7-1.2,2.1-3.5,0.9-5.1c-0.7-1-1.8-1.6-3-1.6h-13.4
	l-4.1-12.8c-0.6-1.9-2.6-3-4.6-2.4c-1.2,0.4-2.1,1.3-2.4,2.4l-4.1,12.8H118c-2,0-3.7,1.6-3.7,3.7C114.3,132.9,114.9,134,115.9,134.7
	z M148.7,139.1c-1.5,1.1-2.1,3-1.6,4.8l3.4,10.6l-9-6.5c-1.5-1.1-3.5-1.1-5,0l-9,6.5l3.4-10.6c0.6-1.8-0.1-3.7-1.6-4.8l-9-6.5h11.1
	c1.9,0,3.5-1.2,4.1-3l3.4-10.6l3.4,10.6c0.6,1.8,2.2,3,4.1,3h11.1L148.7,139.1z"/>
<linearGradient id="SVGID_2_" gradientUnits="userSpaceOnUse" x1="92.9399" y1="115.604" x2="185.1901" y2="207.8543">
	<stop  offset="0" style="stop-color:#FDBD30"/>
	<stop  offset="1" style="stop-color:#C66137"/>
</linearGradient>
<path class="st1" d="M194.3,196.4l-16.4-32.8l0.4-0.6c14.6-21.6,9-51.1-12.7-65.7s-51.1-9-65.7,12.7c-10.8,16-10.8,37,0,53l0.4,0.6
	l-16.4,32.8c-0.4,0.8-0.4,1.7,0.1,2.4c0.5,0.7,1.3,1.2,2.2,1.2h19.1l11.5,15.3c0.5,0.6,1.2,1,2,1c1,0,1.8-0.5,2.3-1.4l15.6-31.2h0.8
	c0.6,0,1.2,0,1.7,0s1,0,1.7,0h0.8l15.6,31.2c0.6,1.2,2.1,1.8,3.4,1.1c0.4-0.2,0.7-0.4,0.9-0.7l11.5-15.3H192c0.9,0,1.7-0.5,2.1-1.2
	C194.6,198.1,194.6,197.1,194.3,196.4z M148.5,182.8c9.4-1.9,18-6.6,24.6-13.6l1.3-1.3l13.5,27.1h-16.3c-0.8,0-1.5,0.4-2,1l-9.8,13
	l-13-25.9L148.5,182.8z M103.8,167.9l1.3,1.3c6.6,6.9,15.2,11.6,24.6,13.6l1.6,0.3l-13,25.9l-9.8-13c-0.5-0.6-1.2-1-2-1H90.2
	L103.8,167.9z M139.1,94.2c23.3,0,42.3,18.9,42.2,42.3c0,23.3-18.9,42.3-42.3,42.2c-23.3,0-42.3-18.9-42.3-42.3
	C96.8,113.1,115.7,94.2,139.1,94.2z"/>
</svg>
