<?xml version="1.0" encoding="utf-8"?>
<!-- Generator: Adobe Illustrator 24.0.0, SVG Export Plug-In . SVG Version: 6.00 Build 0)  -->
<svg version="1.1" id="Calque_1" xmlns="http://www.w3.org/2000/svg" xmlns:xlink="http://www.w3.org/1999/xlink" x="0px" y="0px"
	 viewBox="0 0 24 24" style="enable-background:new 0 0 24 24;" xml:space="preserve">
<style type="text/css">
	.st0{fill:none;stroke:#FFFFFF;stroke-width:2;stroke-linecap:round;stroke-linejoin:round;}
</style>
<path class="st0" d="M22.5,6.4c-0.1-0.5-0.4-0.9-0.7-1.3c-0.3-0.4-0.8-0.6-1.2-0.7C18.9,4,12,4,12,4S5.1,4,3.4,4.5
	C2.9,4.6,2.5,4.8,2.2,5.2C1.8,5.6,1.6,6,1.5,6.5C1.1,8.2,1,10,1,11.7c0,1.8,0.1,3.6,0.5,5.3c0.1,0.5,0.4,0.9,0.7,1.2
	c0.3,0.3,0.8,0.6,1.2,0.7c1.7,0.5,8.6,0.5,8.6,0.5s6.9,0,8.6-0.5c0.5-0.1,0.9-0.4,1.2-0.7c0.3-0.4,0.6-0.8,0.7-1.3
	c0.3-1.7,0.5-3.5,0.5-5.3C23,10,22.9,8.2,22.5,6.4L22.5,6.4z"/>
<path class="st0" d="M9.8,15l5.8-3.3L9.8,8.5V15z"/>
</svg>
