<?xml version="1.0" encoding="utf-8"?>
<!-- Generator: Adobe Illustrator 24.0.0, SVG Export Plug-In . SVG Version: 6.00 Build 0)  -->
<svg version="1.1" id="Layer_2" xmlns="http://www.w3.org/2000/svg" xmlns:xlink="http://www.w3.org/1999/xlink" x="0px" y="0px"
	 viewBox="0 0 278.1 283" style="enable-background:new 0 0 278.1 283;" xml:space="preserve">
<style type="text/css">
	.st0{fill:url(#SVGID_1_);}
</style>
<title>mes_icones-b</title>
<linearGradient id="SVGID_1_" gradientUnits="userSpaceOnUse" x1="103.9699" y1="97.6149" x2="184.0017" y2="177.6467">
	<stop  offset="0" style="stop-color:#FDBD30"/>
	<stop  offset="1" style="stop-color:#C66137"/>
</linearGradient>
<path class="st0" d="M173.9,90.7c-5.3,0-10.2,2.3-13.6,6.4l4.6-15.2h9c1.1,0,2-0.9,2-2s-0.9-2-2-2h-11.9l-7.5,24.4h-54
	c-1.8,0-3.2,1.5-3.2,3.2c0,0.7,0.2,1.4,0.7,2l17.2,22l0,0l0,0l21.2,27v44.5h-14.8c-1.1,0-2,0.9-2,2s0.9,2,2,2h34.1c1.1,0,2-0.9,2-2
	s-0.9-2-2-2h-15.3v-44.5l21-27l0,0l0,0l4.3-5.5c8.7,4.5,19.3,1.1,23.8-7.6s1.1-19.3-7.6-23.8C179.5,91.4,176.7,90.7,173.9,90.7z
	 M147.4,125.6h-30.2l-15.1-19.3h51.2L147.4,125.6z M146.2,129.6l-4.5,14.7c-0.3,1,0.3,2.2,1.3,2.5l0,0l-4.6,5.9l-18.1-23.1H146.2z
	 M150.4,129.6h6l-10,12.9L150.4,129.6z M151.6,125.6l5.9-19.3h17l-15,19.3H151.6L151.6,125.6z M178.6,107.6c1.1-1.4,0.8-3.5-0.6-4.5
	c-0.6-0.4-1.3-0.7-2-0.7h-14.4c3.3-6.8,11.5-9.6,18.3-6.3s9.6,11.5,6.3,18.3c-3.3,6.7-11.2,9.5-18,6.4L178.6,107.6z"/>
</svg>
