<?xml version="1.0" encoding="utf-8"?>
<!-- Generator: Adobe Illustrator 24.0.0, SVG Export Plug-In . SVG Version: 6.00 Build 0)  -->
<svg version="1.1" id="Calque_1" xmlns="http://www.w3.org/2000/svg" xmlns:xlink="http://www.w3.org/1999/xlink" x="0px" y="0px"
	 viewBox="0 0 24 24" style="enable-background:new 0 0 24 24;" xml:space="preserve">
<style type="text/css">
	.st0{fill:#FFFFFF;}
</style>
<path class="st0" d="M23,2c0-0.1,0-0.2-0.1-0.3V1.6c0-0.1-0.1-0.2-0.2-0.3s-0.2-0.1-0.3-0.2h-0.1c-0.1,0-0.2,0-0.3-0.1h-0.1
	c-0.1,0-0.2,0-0.3,0.1L1.7,8C1.3,8.1,1,8.5,1,8.9s0.2,0.8,0.6,1l8.6,3.9l3.8,8.7c0.2,0.4,0.5,0.6,0.9,0.6l0,0c0.4,0,0.8-0.3,0.9-0.7
	l7.1-20C23,2.3,23,2.2,23,2L23,2z M18.2,4.4l-7.4,7.4L4.7,9.1L18.2,4.4z M14.9,19.3l-2.7-6.1l7.4-7.4L14.9,19.3z"/>
</svg>
