<?xml version="1.0" encoding="utf-8"?>
<!-- Generator: Adobe Illustrator 24.0.0, SVG Export Plug-In . SVG Version: 6.00 Build 0)  -->
<svg version="1.1" id="Calque_1" xmlns="http://www.w3.org/2000/svg" xmlns:xlink="http://www.w3.org/1999/xlink" x="0px" y="0px"
	 viewBox="0 0 24 24" style="enable-background:new 0 0 24 24;" xml:space="preserve">
<style type="text/css">
	.st0{fill:url(#SVGID_1_);}
</style>
<linearGradient id="SVGID_1_" gradientUnits="userSpaceOnUse" x1="7.9229" y1="4.4229" x2="23.0773" y2="19.5773">
	<stop  offset="0" style="stop-color:#FDBD30"/>
	<stop  offset="1" style="stop-color:#C66137"/>
</linearGradient>
<path class="st0" d="M18,15c-1.1,0-2.1,0.5-2.8,1.2l-5.3-3.1C9.9,12.7,10,12.4,10,12c0-0.4-0.1-0.7-0.2-1.1l5.3-3.1
	C15.9,8.5,16.9,9,18,9c2.2,0,4-1.8,4-4s-1.8-4-4-4s-4,1.8-4,4c0,0.4,0.1,0.7,0.2,1.1L8.8,9.2C8.1,8.5,7.1,8,6,8c-2.2,0-4,1.8-4,4
	c0,2.2,1.8,4,4,4c1.1,0,2.1-0.5,2.8-1.2l5.3,3.1C14.1,18.3,14,18.6,14,19c0,2.2,1.8,4,4,4s4-1.8,4-4S20.2,15,18,15z M18,3
	c1.1,0,2,0.9,2,2s-0.9,2-2,2s-2-0.9-2-2S16.9,3,18,3z M6,14c-1.1,0-2-0.9-2-2c0-1.1,0.9-2,2-2s2,0.9,2,2C8,13.1,7.1,14,6,14z M18,21
	c-1.1,0-2-0.9-2-2c0-0.4,0.1-0.7,0.3-1c0,0,0,0,0,0c0,0,0,0,0,0c0.3-0.6,1-1,1.7-1c1.1,0,2,0.9,2,2S19.1,21,18,21z"/>
</svg>
