<?xml version="1.0" encoding="utf-8"?>
<!-- Generator: Adobe Illustrator 24.0.0, SVG Export Plug-In . SVG Version: 6.00 Build 0)  -->
<svg version="1.1" id="Calque_1" xmlns="http://www.w3.org/2000/svg" xmlns:xlink="http://www.w3.org/1999/xlink" x="0px" y="0px"
	 viewBox="0 0 24 24" style="enable-background:new 0 0 24 24;" xml:space="preserve">
<style type="text/css">
	.st0{fill:none;stroke:url(#SVGID_1_);stroke-width:2;stroke-linecap:round;stroke-linejoin:round;}
	.st1{fill:none;stroke:url(#SVGID_2_);stroke-width:2;stroke-linecap:round;stroke-linejoin:round;}
	.st2{fill:none;stroke:url(#SVGID_3_);stroke-width:2;stroke-linecap:round;stroke-linejoin:round;}
</style>
<linearGradient id="SVGID_1_" gradientUnits="userSpaceOnUse" x1="9.9216" y1="10.179" x2="22.0784" y2="22.3358">
	<stop  offset="0" style="stop-color:#FDBD30"/>
	<stop  offset="1" style="stop-color:#C66137"/>
</linearGradient>
<path class="st0" d="M16,8c1.6,0,3.1,0.6,4.2,1.8c1.1,1.1,1.8,2.7,1.8,4.2v7h-4v-7c0-0.5-0.2-1-0.6-1.4C17,12.2,16.5,12,16,12
	c-0.5,0-1,0.2-1.4,0.6S14,13.5,14,14v7h-4v-7c0-1.6,0.6-3.1,1.8-4.2C12.9,8.6,14.4,8,16,8L16,8z"/>
<linearGradient id="SVGID_2_" gradientUnits="userSpaceOnUse" x1="-0.7071" y1="10.2929" x2="8.7071" y2="19.7071">
	<stop  offset="0" style="stop-color:#FDBD30"/>
	<stop  offset="1" style="stop-color:#C66137"/>
</linearGradient>
<path class="st1" d="M6,9H2v12h4V9z"/>
<linearGradient id="SVGID_3_" gradientUnits="userSpaceOnUse" x1="1.8787" y1="1.8787" x2="6.1213" y2="6.1213">
	<stop  offset="0" style="stop-color:#FDBD30"/>
	<stop  offset="1" style="stop-color:#C66137"/>
</linearGradient>
<path class="st2" d="M4,6c1.1,0,2-0.9,2-2S5.1,2,4,2S2,2.9,2,4S2.9,6,4,6z"/>
</svg>
