<?xml version="1.0" encoding="utf-8"?>
<!-- Generator: Adobe Illustrator 24.0.0, SVG Export Plug-In . SVG Version: 6.00 Build 0)  -->
<svg version="1.1" id="Calque_1" xmlns="http://www.w3.org/2000/svg" xmlns:xlink="http://www.w3.org/1999/xlink" x="0px" y="0px"
	 viewBox="0 0 126.81 127.99" style="enable-background:new 0 0 126.81 127.99;" xml:space="preserve">
<style type="text/css">
	.st0{fill:none;stroke:#F9B233;stroke-width:3;stroke-linecap:round;stroke-miterlimit:10;}
	.st1{fill:#F9B233;}
</style>
<g>
	<path class="st0" d="M43.05,28.34v94.03c0,2.27,1.84,4.12,4.12,4.12h56.51c2.26,0,4.1-1.83,4.1-4.1V60.14
		c0,0-1.42-14.58-13.15-26.49C82.64,21.96,57.98,22.51,47.71,23.31C45.08,23.52,43.05,25.7,43.05,28.34z"/>
	<circle class="st1" cx="63.9" cy="50.92" r="5.5"/>
	<path class="st0" d="M43.02,24.52L2.08,21.96c-0.52-0.01-0.78,0.61-0.41,0.97l38.19,36.72l-20.4,23.3
		c-3.54,4.05-5.29,9.43-4.5,14.75c0.41,2.78,1.48,5.58,3.78,7.65c0.07,0.06,0.13,0.12,0.2,0.18c4.49,3.97,11.18,4.17,15.93,0.51l0,0
		c4.11-3.16,6.57-8.02,6.68-13.21L43.02,24.52z"/>
	<path class="st0" d="M45.68,23.92c0.69-5.41,4.21-13.03,9.2-15.07C60,6.76,65.9,7.72,70.18,11.28c0.29,0.24,0.71,0.22,0.97-0.05
		c7.96-8.22,19.58-11.61,30.29-8.71c1.42,0.38,15.57,4.49,20.41,18.97c4.29,12.83-2.16,23.58-3.94,26.2c-0.2,0.3-0.15,0.7,0.13,0.94
		c1.65,1.39,4.73,4.45,6.11,9.37c2.08,7.41-1.22,13.58-2.33,15.41c-0.15,0.25-0.14,0.55,0.03,0.79c1.16,1.62,3.44,5.37,3.45,10.54
		c0.01,6.95-4.1,11.61-5.62,13.11c-0.24,0.24-0.28,0.6-0.1,0.88c0.8,1.27,2.55,4.63,1.4,8.43c-1.3,4.3-5.76,7.36-10.92,7.19"/>
</g>
</svg>
