<svg width="146" height="86" viewBox="0 0 146 86" fill="none" xmlns="http://www.w3.org/2000/svg">
<path d="M14.1404 14.5018C12.3729 12.145 10.7467 5.9468 18.3826 0.0078125C20.0323 2.71806 21.4935 9.4112 14.1404 14.5018Z" fill="url(#paint0_linear)"/>
<path d="M11.6659 20.865C11.9015 17.3298 10.3932 9.76471 2.47458 7.78505C2.47458 11.6737 4.31283 19.7337 11.6659 20.865Z" fill="url(#paint1_linear)"/>
<path d="M0 22.6325C3.65295 22.7503 10.8881 24.9657 10.6053 32.8843C8.36642 33.827 3.1109 33.0964 0 22.6325Z" fill="url(#paint2_linear)"/>
<path d="M2.47458 38.5405C6.3632 38.5405 14.1404 40.3081 14.1404 47.3783C11.0767 48.5566 4.45424 48.4388 2.47458 38.5405Z" fill="url(#paint3_linear)"/>
<path d="M6.3632 54.802C10.0161 53.7415 17.8877 53.4587 20.1501 60.8117C17.322 62.1079 10.6053 62.7206 6.3632 54.802Z" fill="url(#paint4_linear)"/>
<path d="M12.7264 70.71C16.0258 68.2354 23.6145 64.771 27.5738 70.71C25.3349 72.7132 19.231 75.5177 12.7264 70.71Z" fill="url(#paint5_linear)"/>
<path d="M24.0387 13.0877C21.0928 13.7947 15.4131 17.4005 16.2615 26.1676C19.6788 25.4606 26.0184 21.8548 24.0387 13.0877Z" fill="url(#paint6_linear)"/>
<path d="M25.0993 26.1676C21.4463 27.346 14.5646 31.4703 16.2615 38.5405C19.2074 38.3048 25.0993 35.5003 25.0993 26.1676Z" fill="url(#paint7_linear)"/>
<path d="M27.5738 37.48C27.9274 41.6043 26.9375 49.9236 20.1501 50.2064C18.6182 47.8496 17.9584 42.0049 27.5738 37.48Z" fill="url(#paint8_linear)"/>
<path d="M32.1695 48.7923C29.3414 50.6777 24.2508 55.9332 26.5133 61.8722C29.3414 61.7544 34.432 58.9734 32.1695 48.7923Z" fill="url(#paint9_linear)"/>
<path d="M38.5327 56.216C35.2333 58.1014 29.9777 63.6398 35.3511 70.71C37.9435 68.8246 42.2092 63.2863 38.5327 56.216Z" fill="url(#paint10_linear)"/>
<path d="M14.1404 19.4509C10.7467 61.0238 40.7716 79.6656 56.2082 83.7899L54.7942 85.5575C15.201 71.1342 10.2518 35.4767 12.7264 19.4509C13.5748 14.0775 14.0226 17.212 14.1404 19.4509Z" fill="url(#paint11_linear)"/>
<path d="M131.86 14.8543C133.627 12.4976 135.253 6.29933 127.617 0.360352C125.968 3.0706 124.507 9.76374 131.86 14.8543Z" fill="url(#paint12_linear)"/>
<path d="M134.334 21.2175C134.098 17.6824 135.607 10.1173 143.525 8.13759C143.525 12.0262 141.687 20.0863 134.334 21.2175Z" fill="url(#paint13_linear)"/>
<path d="M146 22.9851C142.347 23.1029 135.112 25.3182 135.395 33.2369C137.634 34.1796 142.889 33.449 146 22.9851Z" fill="url(#paint14_linear)"/>
<path d="M143.525 38.893C139.637 38.893 131.86 40.6606 131.86 47.7308C134.923 48.9092 141.546 48.7913 143.525 38.893Z" fill="url(#paint15_linear)"/>
<path d="M139.637 55.1545C135.984 54.094 128.112 53.8112 125.85 61.1642C128.678 62.4604 135.395 63.0732 139.637 55.1545Z" fill="url(#paint16_linear)"/>
<path d="M133.274 71.0625C129.974 68.588 122.385 65.1236 118.426 71.0625C120.665 73.0658 126.769 75.8703 133.274 71.0625Z" fill="url(#paint17_linear)"/>
<path d="M121.961 13.4403C124.907 14.1473 130.587 17.7531 129.738 26.5202C126.321 25.8131 119.982 22.2073 121.961 13.4403Z" fill="url(#paint18_linear)"/>
<path d="M120.901 26.5202C124.554 27.6985 131.435 31.8228 129.738 38.893C126.793 38.6574 120.901 35.8528 120.901 26.5202Z" fill="url(#paint19_linear)"/>
<path d="M118.426 37.8325C118.073 41.9568 119.062 50.2761 125.85 50.5589C127.382 48.2022 128.042 42.3574 118.426 37.8325Z" fill="url(#paint20_linear)"/>
<path d="M113.831 49.1449C116.659 51.0303 121.749 56.2858 119.487 62.2248C116.659 62.1069 111.568 59.326 113.831 49.1449Z" fill="url(#paint21_linear)"/>
<path d="M107.467 56.5686C110.767 58.454 116.022 63.9923 110.649 71.0625C108.056 69.1771 103.791 63.6388 107.467 56.5686Z" fill="url(#paint22_linear)"/>
<path d="M131.86 19.8035C135.253 61.3763 105.228 80.0181 89.7918 84.1424L91.2058 85.91C130.799 71.4867 135.748 35.8293 133.274 19.8035C132.425 14.4301 131.977 17.5645 131.86 19.8035Z" fill="url(#paint23_linear)"/>
<defs>
<linearGradient id="paint0_linear" x1="28.1041" y1="0.0078125" x2="28.1041" y2="85.5575" gradientUnits="userSpaceOnUse">
<stop stop-color="#DAAB56"/>
<stop offset="1" stop-color="#8B4202"/>
</linearGradient>
<linearGradient id="paint1_linear" x1="28.1041" y1="0.0078125" x2="28.1041" y2="85.5575" gradientUnits="userSpaceOnUse">
<stop stop-color="#DAAB56"/>
<stop offset="1" stop-color="#8B4202"/>
</linearGradient>
<linearGradient id="paint2_linear" x1="28.1041" y1="0.0078125" x2="28.1041" y2="85.5575" gradientUnits="userSpaceOnUse">
<stop stop-color="#DAAB56"/>
<stop offset="1" stop-color="#8B4202"/>
</linearGradient>
<linearGradient id="paint3_linear" x1="28.1041" y1="0.0078125" x2="28.1041" y2="85.5575" gradientUnits="userSpaceOnUse">
<stop stop-color="#DAAB56"/>
<stop offset="1" stop-color="#8B4202"/>
</linearGradient>
<linearGradient id="paint4_linear" x1="28.1041" y1="0.0078125" x2="28.1041" y2="85.5575" gradientUnits="userSpaceOnUse">
<stop stop-color="#DAAB56"/>
<stop offset="1" stop-color="#8B4202"/>
</linearGradient>
<linearGradient id="paint5_linear" x1="28.1041" y1="0.0078125" x2="28.1041" y2="85.5575" gradientUnits="userSpaceOnUse">
<stop stop-color="#DAAB56"/>
<stop offset="1" stop-color="#8B4202"/>
</linearGradient>
<linearGradient id="paint6_linear" x1="28.1041" y1="0.0078125" x2="28.1041" y2="85.5575" gradientUnits="userSpaceOnUse">
<stop stop-color="#DAAB56"/>
<stop offset="1" stop-color="#8B4202"/>
</linearGradient>
<linearGradient id="paint7_linear" x1="28.1041" y1="0.0078125" x2="28.1041" y2="85.5575" gradientUnits="userSpaceOnUse">
<stop stop-color="#DAAB56"/>
<stop offset="1" stop-color="#8B4202"/>
</linearGradient>
<linearGradient id="paint8_linear" x1="28.1041" y1="0.0078125" x2="28.1041" y2="85.5575" gradientUnits="userSpaceOnUse">
<stop stop-color="#DAAB56"/>
<stop offset="1" stop-color="#8B4202"/>
</linearGradient>
<linearGradient id="paint9_linear" x1="28.1041" y1="0.0078125" x2="28.1041" y2="85.5575" gradientUnits="userSpaceOnUse">
<stop stop-color="#DAAB56"/>
<stop offset="1" stop-color="#8B4202"/>
</linearGradient>
<linearGradient id="paint10_linear" x1="28.1041" y1="0.0078125" x2="28.1041" y2="85.5575" gradientUnits="userSpaceOnUse">
<stop stop-color="#DAAB56"/>
<stop offset="1" stop-color="#8B4202"/>
</linearGradient>
<linearGradient id="paint11_linear" x1="28.1041" y1="0.0078125" x2="28.1041" y2="85.5575" gradientUnits="userSpaceOnUse">
<stop stop-color="#DAAB56"/>
<stop offset="1" stop-color="#8B4202"/>
</linearGradient>
<linearGradient id="paint12_linear" x1="117.896" y1="0.360352" x2="117.896" y2="85.91" gradientUnits="userSpaceOnUse">
<stop stop-color="#DAAB56"/>
<stop offset="1" stop-color="#8B4202"/>
</linearGradient>
<linearGradient id="paint13_linear" x1="117.896" y1="0.360352" x2="117.896" y2="85.91" gradientUnits="userSpaceOnUse">
<stop stop-color="#DAAB56"/>
<stop offset="1" stop-color="#8B4202"/>
</linearGradient>
<linearGradient id="paint14_linear" x1="117.896" y1="0.360352" x2="117.896" y2="85.91" gradientUnits="userSpaceOnUse">
<stop stop-color="#DAAB56"/>
<stop offset="1" stop-color="#8B4202"/>
</linearGradient>
<linearGradient id="paint15_linear" x1="117.896" y1="0.360352" x2="117.896" y2="85.91" gradientUnits="userSpaceOnUse">
<stop stop-color="#DAAB56"/>
<stop offset="1" stop-color="#8B4202"/>
</linearGradient>
<linearGradient id="paint16_linear" x1="117.896" y1="0.360352" x2="117.896" y2="85.91" gradientUnits="userSpaceOnUse">
<stop stop-color="#DAAB56"/>
<stop offset="1" stop-color="#8B4202"/>
</linearGradient>
<linearGradient id="paint17_linear" x1="117.896" y1="0.360352" x2="117.896" y2="85.91" gradientUnits="userSpaceOnUse">
<stop stop-color="#DAAB56"/>
<stop offset="1" stop-color="#8B4202"/>
</linearGradient>
<linearGradient id="paint18_linear" x1="117.896" y1="0.360352" x2="117.896" y2="85.91" gradientUnits="userSpaceOnUse">
<stop stop-color="#DAAB56"/>
<stop offset="1" stop-color="#8B4202"/>
</linearGradient>
<linearGradient id="paint19_linear" x1="117.896" y1="0.360352" x2="117.896" y2="85.91" gradientUnits="userSpaceOnUse">
<stop stop-color="#DAAB56"/>
<stop offset="1" stop-color="#8B4202"/>
</linearGradient>
<linearGradient id="paint20_linear" x1="117.896" y1="0.360352" x2="117.896" y2="85.91" gradientUnits="userSpaceOnUse">
<stop stop-color="#DAAB56"/>
<stop offset="1" stop-color="#8B4202"/>
</linearGradient>
<linearGradient id="paint21_linear" x1="117.896" y1="0.360352" x2="117.896" y2="85.91" gradientUnits="userSpaceOnUse">
<stop stop-color="#DAAB56"/>
<stop offset="1" stop-color="#8B4202"/>
</linearGradient>
<linearGradient id="paint22_linear" x1="117.896" y1="0.360352" x2="117.896" y2="85.91" gradientUnits="userSpaceOnUse">
<stop stop-color="#DAAB56"/>
<stop offset="1" stop-color="#8B4202"/>
</linearGradient>
<linearGradient id="paint23_linear" x1="117.896" y1="0.360352" x2="117.896" y2="85.91" gradientUnits="userSpaceOnUse">
<stop stop-color="#DAAB56"/>
<stop offset="1" stop-color="#8B4202"/>
</linearGradient>
</defs>
</svg>
