<svg width="24" height="27" viewBox="0 0 24 27" fill="none" xmlns="http://www.w3.org/2000/svg">
<path d="M16.934 7.56093C17.05 7.85096 17.2218 8.11532 17.4403 8.33848L17.4404 8.3386C17.882 8.78973 18.4852 9.04358 19.1165 9.04339C19.4874 9.04328 19.8489 8.95554 20.1744 8.79251L20.9587 9.5943L7.85161 22.7285L7.07247 21.9317C7.52721 21.0409 7.39677 19.9221 6.65944 19.1683C5.92129 18.4136 4.81291 18.2684 3.92367 18.7134L3.14012 17.9121L16.2478 4.77824L17.0264 5.57492C16.9992 5.62846 16.9738 5.68307 16.9506 5.73865C16.8299 6.02687 16.7662 6.33591 16.7632 6.64832C16.7602 6.96075 16.8181 7.27087 16.934 7.56093Z" stroke="#004181" stroke-width="1.5"/>
</svg>
