<svg width="134" height="79" viewBox="0 0 134 79" fill="none" xmlns="http://www.w3.org/2000/svg">
<path d="M12.9782 13.3027C11.3559 11.1396 9.86344 5.45085 16.8717 0C18.3858 2.48749 19.7269 8.63051 12.9782 13.3027Z" fill="url(#paint0_linear)"/>
<path d="M10.707 19.1429C10.9233 15.8983 9.53898 8.95496 2.27119 7.13801C2.27119 10.707 3.95835 18.1046 10.707 19.1429Z" fill="url(#paint1_linear)"/>
<path d="M0 20.7651C3.3527 20.8733 9.99322 22.9065 9.73366 30.1743C7.67877 31.0395 2.85521 30.369 0 20.7651Z" fill="url(#paint2_linear)"/>
<path d="M2.27119 35.3656C5.84019 35.3656 12.9782 36.9879 12.9782 43.477C10.1663 44.5585 4.08814 44.4504 2.27119 35.3656Z" fill="url(#paint3_linear)"/>
<path d="M5.84019 50.2906C9.1929 49.3172 16.4174 49.0576 18.4939 55.8063C15.8983 56.996 9.73366 57.5584 5.84019 50.2906Z" fill="url(#paint4_linear)"/>
<path d="M11.6804 64.891C14.7086 62.6199 21.6736 59.4402 25.3075 64.891C23.2526 66.7296 17.6504 69.3036 11.6804 64.891Z" fill="url(#paint5_linear)"/>
<path d="M22.063 12.0048C19.3592 12.6538 14.1462 15.9632 14.9249 24.0097C18.0613 23.3608 23.8799 20.0513 22.063 12.0048Z" fill="url(#paint6_linear)"/>
<path d="M23.0363 24.0097C19.6836 25.0912 13.3676 28.8765 14.9249 35.3656C17.6287 35.1493 23.0363 32.5753 23.0363 24.0097Z" fill="url(#paint7_linear)"/>
<path d="M25.3075 34.3923C25.632 38.1776 24.7235 45.8131 18.4939 46.0726C17.088 43.9096 16.4823 38.5453 25.3075 34.3923Z" fill="url(#paint8_linear)"/>
<path d="M29.5254 44.7748C26.9298 46.5052 22.2576 51.3288 24.3341 56.7797C26.9298 56.6715 31.6019 54.1191 29.5254 44.7748Z" fill="url(#paint9_linear)"/>
<path d="M35.3656 51.5884C32.3374 53.3188 27.5138 58.4019 32.4455 64.891C34.8249 63.1606 38.74 58.0775 35.3656 51.5884Z" fill="url(#paint10_linear)"/>
<path d="M12.9782 17.845C9.86344 56.001 37.4205 73.1106 51.5884 76.8959L50.2906 78.5182C13.9516 65.2804 9.4092 32.5537 11.6804 17.845C12.4591 12.9133 12.8701 15.7902 12.9782 17.845Z" fill="url(#paint11_linear)"/>
<path d="M121.022 13.6274C122.644 11.4643 124.137 5.77555 117.128 0.324707C115.614 2.8122 114.273 8.95522 121.022 13.6274Z" fill="url(#paint12_linear)"/>
<path d="M123.293 19.4676C123.077 16.223 124.461 9.27967 131.729 7.46272C131.729 11.0317 130.042 18.4293 123.293 19.4676Z" fill="url(#paint13_linear)"/>
<path d="M134 21.0898C130.647 21.198 124.007 23.2312 124.266 30.499C126.321 31.3643 131.145 30.6937 134 21.0898Z" fill="url(#paint14_linear)"/>
<path d="M131.729 35.6903C128.16 35.6903 121.022 37.3126 121.022 43.8017C123.834 44.8832 129.912 44.7751 131.729 35.6903Z" fill="url(#paint15_linear)"/>
<path d="M128.16 50.6153C124.807 49.6419 117.583 49.3823 115.506 56.131C118.102 57.3207 124.266 57.8831 128.16 50.6153Z" fill="url(#paint16_linear)"/>
<path d="M122.32 65.2157C119.291 62.9446 112.326 59.7649 108.692 65.2157C110.747 67.0543 116.35 69.6283 122.32 65.2157Z" fill="url(#paint17_linear)"/>
<path d="M111.937 12.3295C114.641 12.9785 119.854 16.2879 119.075 24.3344C115.939 23.6855 110.12 20.376 111.937 12.3295Z" fill="url(#paint18_linear)"/>
<path d="M110.964 24.3344C114.316 25.4159 120.632 29.2012 119.075 35.6903C116.371 35.474 110.964 32.9 110.964 24.3344Z" fill="url(#paint19_linear)"/>
<path d="M108.692 34.717C108.368 38.5023 109.277 46.1378 115.506 46.3973C116.912 44.2343 117.518 38.87 108.692 34.717Z" fill="url(#paint20_linear)"/>
<path d="M104.475 45.0995C107.07 46.83 111.742 51.6535 109.666 57.1044C107.07 56.9962 102.398 54.4438 104.475 45.0995Z" fill="url(#paint21_linear)"/>
<path d="M98.6344 51.9131C101.663 53.6435 106.486 58.7266 101.554 65.2157C99.1751 63.4853 95.26 58.4022 98.6344 51.9131Z" fill="url(#paint22_linear)"/>
<path d="M121.022 18.1697C124.137 56.3257 96.5795 73.4353 82.4116 77.2206L83.7094 78.8429C120.048 65.6051 124.591 32.8784 122.32 18.1697C121.541 13.238 121.13 16.1149 121.022 18.1697Z" fill="url(#paint23_linear)"/>
<defs>
<linearGradient id="paint0_linear" x1="25.7942" y1="0" x2="25.7942" y2="78.5182" gradientUnits="userSpaceOnUse">
<stop stop-color="#D9D9D9"/>
<stop offset="1" stop-color="#767676"/>
</linearGradient>
<linearGradient id="paint1_linear" x1="25.7942" y1="0" x2="25.7942" y2="78.5182" gradientUnits="userSpaceOnUse">
<stop stop-color="#D9D9D9"/>
<stop offset="1" stop-color="#767676"/>
</linearGradient>
<linearGradient id="paint2_linear" x1="25.7942" y1="0" x2="25.7942" y2="78.5182" gradientUnits="userSpaceOnUse">
<stop stop-color="#D9D9D9"/>
<stop offset="1" stop-color="#767676"/>
</linearGradient>
<linearGradient id="paint3_linear" x1="25.7942" y1="0" x2="25.7942" y2="78.5182" gradientUnits="userSpaceOnUse">
<stop stop-color="#D9D9D9"/>
<stop offset="1" stop-color="#767676"/>
</linearGradient>
<linearGradient id="paint4_linear" x1="25.7942" y1="0" x2="25.7942" y2="78.5182" gradientUnits="userSpaceOnUse">
<stop stop-color="#D9D9D9"/>
<stop offset="1" stop-color="#767676"/>
</linearGradient>
<linearGradient id="paint5_linear" x1="25.7942" y1="0" x2="25.7942" y2="78.5182" gradientUnits="userSpaceOnUse">
<stop stop-color="#D9D9D9"/>
<stop offset="1" stop-color="#767676"/>
</linearGradient>
<linearGradient id="paint6_linear" x1="25.7942" y1="0" x2="25.7942" y2="78.5182" gradientUnits="userSpaceOnUse">
<stop stop-color="#D9D9D9"/>
<stop offset="1" stop-color="#767676"/>
</linearGradient>
<linearGradient id="paint7_linear" x1="25.7942" y1="0" x2="25.7942" y2="78.5182" gradientUnits="userSpaceOnUse">
<stop stop-color="#D9D9D9"/>
<stop offset="1" stop-color="#767676"/>
</linearGradient>
<linearGradient id="paint8_linear" x1="25.7942" y1="0" x2="25.7942" y2="78.5182" gradientUnits="userSpaceOnUse">
<stop stop-color="#D9D9D9"/>
<stop offset="1" stop-color="#767676"/>
</linearGradient>
<linearGradient id="paint9_linear" x1="25.7942" y1="0" x2="25.7942" y2="78.5182" gradientUnits="userSpaceOnUse">
<stop stop-color="#D9D9D9"/>
<stop offset="1" stop-color="#767676"/>
</linearGradient>
<linearGradient id="paint10_linear" x1="25.7942" y1="0" x2="25.7942" y2="78.5182" gradientUnits="userSpaceOnUse">
<stop stop-color="#D9D9D9"/>
<stop offset="1" stop-color="#767676"/>
</linearGradient>
<linearGradient id="paint11_linear" x1="25.7942" y1="0" x2="25.7942" y2="78.5182" gradientUnits="userSpaceOnUse">
<stop stop-color="#D9D9D9"/>
<stop offset="1" stop-color="#767676"/>
</linearGradient>
<linearGradient id="paint12_linear" x1="108.206" y1="0.324707" x2="108.206" y2="78.8429" gradientUnits="userSpaceOnUse">
<stop stop-color="#D9D9D9"/>
<stop offset="1" stop-color="#767676"/>
</linearGradient>
<linearGradient id="paint13_linear" x1="108.206" y1="0.324707" x2="108.206" y2="78.8429" gradientUnits="userSpaceOnUse">
<stop stop-color="#D9D9D9"/>
<stop offset="1" stop-color="#767676"/>
</linearGradient>
<linearGradient id="paint14_linear" x1="108.206" y1="0.324707" x2="108.206" y2="78.8429" gradientUnits="userSpaceOnUse">
<stop stop-color="#D9D9D9"/>
<stop offset="1" stop-color="#767676"/>
</linearGradient>
<linearGradient id="paint15_linear" x1="108.206" y1="0.324707" x2="108.206" y2="78.8429" gradientUnits="userSpaceOnUse">
<stop stop-color="#D9D9D9"/>
<stop offset="1" stop-color="#767676"/>
</linearGradient>
<linearGradient id="paint16_linear" x1="108.206" y1="0.324707" x2="108.206" y2="78.8429" gradientUnits="userSpaceOnUse">
<stop stop-color="#D9D9D9"/>
<stop offset="1" stop-color="#767676"/>
</linearGradient>
<linearGradient id="paint17_linear" x1="108.206" y1="0.324707" x2="108.206" y2="78.8429" gradientUnits="userSpaceOnUse">
<stop stop-color="#D9D9D9"/>
<stop offset="1" stop-color="#767676"/>
</linearGradient>
<linearGradient id="paint18_linear" x1="108.206" y1="0.324707" x2="108.206" y2="78.8429" gradientUnits="userSpaceOnUse">
<stop stop-color="#D9D9D9"/>
<stop offset="1" stop-color="#767676"/>
</linearGradient>
<linearGradient id="paint19_linear" x1="108.206" y1="0.324707" x2="108.206" y2="78.8429" gradientUnits="userSpaceOnUse">
<stop stop-color="#D9D9D9"/>
<stop offset="1" stop-color="#767676"/>
</linearGradient>
<linearGradient id="paint20_linear" x1="108.206" y1="0.324707" x2="108.206" y2="78.8429" gradientUnits="userSpaceOnUse">
<stop stop-color="#D9D9D9"/>
<stop offset="1" stop-color="#767676"/>
</linearGradient>
<linearGradient id="paint21_linear" x1="108.206" y1="0.324707" x2="108.206" y2="78.8429" gradientUnits="userSpaceOnUse">
<stop stop-color="#D9D9D9"/>
<stop offset="1" stop-color="#767676"/>
</linearGradient>
<linearGradient id="paint22_linear" x1="108.206" y1="0.324707" x2="108.206" y2="78.8429" gradientUnits="userSpaceOnUse">
<stop stop-color="#D9D9D9"/>
<stop offset="1" stop-color="#767676"/>
</linearGradient>
<linearGradient id="paint23_linear" x1="108.206" y1="0.324707" x2="108.206" y2="78.8429" gradientUnits="userSpaceOnUse">
<stop stop-color="#D9D9D9"/>
<stop offset="1" stop-color="#767676"/>
</linearGradient>
</defs>
</svg>
