<?xml version="1.0" encoding="utf-8"?>
<!-- Generator: Adobe Illustrator 24.0.0, SVG Export Plug-In . SVG Version: 6.00 Build 0)  -->
<svg version="1.1" id="Calque_1" xmlns="http://www.w3.org/2000/svg" xmlns:xlink="http://www.w3.org/1999/xlink" x="0px" y="0px"
	 viewBox="0 0 24 24" style="enable-background:new 0 0 24 24;" xml:space="preserve">
<style type="text/css">
	.st0{fill:none;stroke:#FFFFFF;stroke-width:2;stroke-linecap:round;stroke-linejoin:round;}
</style>
<path class="st0" d="M16,8c1.6,0,3.1,0.6,4.2,1.8c1.1,1.1,1.8,2.7,1.8,4.2v7h-4v-7c0-0.5-0.2-1-0.6-1.4C17,12.2,16.5,12,16,12
	s-1,0.2-1.4,0.6S14,13.5,14,14v7h-4v-7c0-1.6,0.6-3.1,1.8-4.2C12.9,8.6,14.4,8,16,8L16,8z"/>
<path class="st0" d="M6,9H2v12h4V9z"/>
<path class="st0" d="M4,6c1.1,0,2-0.9,2-2S5.1,2,4,2S2,2.9,2,4S2.9,6,4,6z"/>
</svg>
