<svg width="136" height="80" viewBox="0 0 136 80" fill="none" xmlns="http://www.w3.org/2000/svg">
<path d="M13.1552 13.484C11.5108 11.2915 9.99793 5.52517 17.1017 0C18.6365 2.52141 19.9959 8.74819 13.1552 13.484Z" fill="url(#paint0_linear)"/>
<path d="M10.853 19.4039C11.0723 16.1151 9.66905 9.07707 2.30215 7.23534C2.30215 10.853 4.01233 18.3515 10.853 19.4039Z" fill="url(#paint1_linear)"/>
<path d="M0 21.0483C3.39842 21.1579 10.1295 23.2189 9.86638 30.5858C7.78348 31.4628 2.89414 30.7831 0 21.0483Z" fill="url(#paint2_linear)"/>
<path d="M2.30215 35.8478C5.91983 35.8478 13.1552 37.4922 13.1552 44.0698C10.3049 45.1661 4.14388 45.0565 2.30215 35.8478Z" fill="url(#paint3_linear)"/>
<path d="M5.91983 50.9763C9.31824 49.9896 16.6413 49.7265 18.7461 56.5672C16.1151 57.7731 9.86638 58.3432 5.91983 50.9763Z" fill="url(#paint4_linear)"/>
<path d="M11.8397 65.7758C14.9092 63.4737 21.9691 60.2507 25.6526 65.7758C23.5697 67.6395 17.891 70.2486 11.8397 65.7758Z" fill="url(#paint5_linear)"/>
<path d="M22.3638 12.1685C19.6231 12.8263 14.3391 16.1809 15.1284 24.3371C18.3076 23.6793 24.2055 20.3247 22.3638 12.1685Z" fill="url(#paint6_linear)"/>
<path d="M23.3504 24.3371C19.952 25.4333 13.5498 29.2703 15.1284 35.8478C17.8691 35.6286 23.3504 33.0195 23.3504 24.3371Z" fill="url(#paint7_linear)"/>
<path d="M25.6526 34.8612C25.9815 38.6981 25.0606 46.4377 18.7461 46.7009C17.321 44.5083 16.7071 39.0709 25.6526 34.8612Z" fill="url(#paint8_linear)"/>
<path d="M29.928 45.3853C27.297 47.1394 22.5611 52.0287 24.6659 57.5539C27.297 57.4442 32.0328 54.8571 29.928 45.3853Z" fill="url(#paint9_linear)"/>
<path d="M35.8478 52.2918C32.7783 54.0458 27.889 59.1983 32.8879 65.7758C35.2997 64.0218 39.2682 58.8694 35.8478 52.2918Z" fill="url(#paint10_linear)"/>
<path d="M13.1552 18.0884C9.99793 56.7646 37.9307 74.1075 52.2918 77.9444L50.9763 79.5888C14.1418 66.1705 9.5375 32.9976 11.8397 18.0884C12.629 13.0894 13.0455 16.0055 13.1552 18.0884Z" fill="url(#paint11_linear)"/>
<path d="M122.672 13.8132C124.316 11.6206 125.829 5.85427 118.725 0.329102C117.191 2.85051 115.831 9.07729 122.672 13.8132Z" fill="url(#paint12_linear)"/>
<path d="M124.974 19.733C124.755 16.4442 126.158 9.40617 133.525 7.56444C133.525 11.1821 131.815 18.6806 124.974 19.733Z" fill="url(#paint13_linear)"/>
<path d="M135.827 21.3774C132.429 21.487 125.698 23.548 125.961 30.9149C128.044 31.7919 132.933 31.1122 135.827 21.3774Z" fill="url(#paint14_linear)"/>
<path d="M133.525 36.1769C129.907 36.1769 122.672 37.8213 122.672 44.3989C125.522 45.4952 131.683 45.3856 133.525 36.1769Z" fill="url(#paint15_linear)"/>
<path d="M129.907 51.3054C126.509 50.3187 119.186 50.0556 117.081 56.8963C119.712 58.1022 125.961 58.6723 129.907 51.3054Z" fill="url(#paint16_linear)"/>
<path d="M123.987 66.1049C120.918 63.8028 113.858 60.5798 110.175 66.1049C112.257 67.9686 117.936 70.5777 123.987 66.1049Z" fill="url(#paint17_linear)"/>
<path d="M113.463 12.4976C116.204 13.1554 121.488 16.51 120.699 24.6662C117.52 24.0084 111.622 20.6538 113.463 12.4976Z" fill="url(#paint18_linear)"/>
<path d="M112.477 24.6662C115.875 25.7624 122.277 29.5994 120.699 36.1769C117.958 35.9577 112.477 33.3486 112.477 24.6662Z" fill="url(#paint19_linear)"/>
<path d="M110.175 35.1903C109.846 39.0272 110.767 46.7668 117.081 47.03C118.506 44.8374 119.12 39.4 110.175 35.1903Z" fill="url(#paint20_linear)"/>
<path d="M105.899 45.7144C108.53 47.4685 113.266 52.3578 111.161 57.883C108.53 57.7733 103.794 55.1862 105.899 45.7144Z" fill="url(#paint21_linear)"/>
<path d="M99.9793 52.6209C103.049 54.3749 107.938 59.5274 102.939 66.1049C100.527 64.3509 96.559 59.1985 99.9793 52.6209Z" fill="url(#paint22_linear)"/>
<path d="M122.672 18.4175C125.829 57.0937 97.8964 74.4366 83.5354 78.2735L84.8509 79.9179C121.685 66.4996 126.29 33.3267 123.987 18.4175C123.198 13.4185 122.782 16.3346 122.672 18.4175Z" fill="url(#paint23_linear)"/>
<defs>
<linearGradient id="paint0_linear" x1="26.1459" y1="0" x2="26.1459" y2="79.5888" gradientUnits="userSpaceOnUse">
<stop stop-color="#F6D000"/>
<stop offset="1" stop-color="#D27E00"/>
</linearGradient>
<linearGradient id="paint1_linear" x1="26.1459" y1="0" x2="26.1459" y2="79.5888" gradientUnits="userSpaceOnUse">
<stop stop-color="#F6D000"/>
<stop offset="1" stop-color="#D27E00"/>
</linearGradient>
<linearGradient id="paint2_linear" x1="26.1459" y1="0" x2="26.1459" y2="79.5888" gradientUnits="userSpaceOnUse">
<stop stop-color="#F6D000"/>
<stop offset="1" stop-color="#D27E00"/>
</linearGradient>
<linearGradient id="paint3_linear" x1="26.1459" y1="0" x2="26.1459" y2="79.5888" gradientUnits="userSpaceOnUse">
<stop stop-color="#F6D000"/>
<stop offset="1" stop-color="#D27E00"/>
</linearGradient>
<linearGradient id="paint4_linear" x1="26.1459" y1="0" x2="26.1459" y2="79.5888" gradientUnits="userSpaceOnUse">
<stop stop-color="#F6D000"/>
<stop offset="1" stop-color="#D27E00"/>
</linearGradient>
<linearGradient id="paint5_linear" x1="26.1459" y1="0" x2="26.1459" y2="79.5888" gradientUnits="userSpaceOnUse">
<stop stop-color="#F6D000"/>
<stop offset="1" stop-color="#D27E00"/>
</linearGradient>
<linearGradient id="paint6_linear" x1="26.1459" y1="0" x2="26.1459" y2="79.5888" gradientUnits="userSpaceOnUse">
<stop stop-color="#F6D000"/>
<stop offset="1" stop-color="#D27E00"/>
</linearGradient>
<linearGradient id="paint7_linear" x1="26.1459" y1="0" x2="26.1459" y2="79.5888" gradientUnits="userSpaceOnUse">
<stop stop-color="#F6D000"/>
<stop offset="1" stop-color="#D27E00"/>
</linearGradient>
<linearGradient id="paint8_linear" x1="26.1459" y1="0" x2="26.1459" y2="79.5888" gradientUnits="userSpaceOnUse">
<stop stop-color="#F6D000"/>
<stop offset="1" stop-color="#D27E00"/>
</linearGradient>
<linearGradient id="paint9_linear" x1="26.1459" y1="0" x2="26.1459" y2="79.5888" gradientUnits="userSpaceOnUse">
<stop stop-color="#F6D000"/>
<stop offset="1" stop-color="#D27E00"/>
</linearGradient>
<linearGradient id="paint10_linear" x1="26.1459" y1="0" x2="26.1459" y2="79.5888" gradientUnits="userSpaceOnUse">
<stop stop-color="#F6D000"/>
<stop offset="1" stop-color="#D27E00"/>
</linearGradient>
<linearGradient id="paint11_linear" x1="26.1459" y1="0" x2="26.1459" y2="79.5888" gradientUnits="userSpaceOnUse">
<stop stop-color="#F6D000"/>
<stop offset="1" stop-color="#D27E00"/>
</linearGradient>
<linearGradient id="paint12_linear" x1="109.681" y1="0.329102" x2="109.681" y2="79.9179" gradientUnits="userSpaceOnUse">
<stop stop-color="#F6D000"/>
<stop offset="1" stop-color="#D27E00"/>
</linearGradient>
<linearGradient id="paint13_linear" x1="109.681" y1="0.329102" x2="109.681" y2="79.9179" gradientUnits="userSpaceOnUse">
<stop stop-color="#F6D000"/>
<stop offset="1" stop-color="#D27E00"/>
</linearGradient>
<linearGradient id="paint14_linear" x1="109.681" y1="0.329102" x2="109.681" y2="79.9179" gradientUnits="userSpaceOnUse">
<stop stop-color="#F6D000"/>
<stop offset="1" stop-color="#D27E00"/>
</linearGradient>
<linearGradient id="paint15_linear" x1="109.681" y1="0.329102" x2="109.681" y2="79.9179" gradientUnits="userSpaceOnUse">
<stop stop-color="#F6D000"/>
<stop offset="1" stop-color="#D27E00"/>
</linearGradient>
<linearGradient id="paint16_linear" x1="109.681" y1="0.329102" x2="109.681" y2="79.9179" gradientUnits="userSpaceOnUse">
<stop stop-color="#F6D000"/>
<stop offset="1" stop-color="#D27E00"/>
</linearGradient>
<linearGradient id="paint17_linear" x1="109.681" y1="0.329102" x2="109.681" y2="79.9179" gradientUnits="userSpaceOnUse">
<stop stop-color="#F6D000"/>
<stop offset="1" stop-color="#D27E00"/>
</linearGradient>
<linearGradient id="paint18_linear" x1="109.681" y1="0.329102" x2="109.681" y2="79.9179" gradientUnits="userSpaceOnUse">
<stop stop-color="#F6D000"/>
<stop offset="1" stop-color="#D27E00"/>
</linearGradient>
<linearGradient id="paint19_linear" x1="109.681" y1="0.329102" x2="109.681" y2="79.9179" gradientUnits="userSpaceOnUse">
<stop stop-color="#F6D000"/>
<stop offset="1" stop-color="#D27E00"/>
</linearGradient>
<linearGradient id="paint20_linear" x1="109.681" y1="0.329102" x2="109.681" y2="79.9179" gradientUnits="userSpaceOnUse">
<stop stop-color="#F6D000"/>
<stop offset="1" stop-color="#D27E00"/>
</linearGradient>
<linearGradient id="paint21_linear" x1="109.681" y1="0.329102" x2="109.681" y2="79.9179" gradientUnits="userSpaceOnUse">
<stop stop-color="#F6D000"/>
<stop offset="1" stop-color="#D27E00"/>
</linearGradient>
<linearGradient id="paint22_linear" x1="109.681" y1="0.329102" x2="109.681" y2="79.9179" gradientUnits="userSpaceOnUse">
<stop stop-color="#F6D000"/>
<stop offset="1" stop-color="#D27E00"/>
</linearGradient>
<linearGradient id="paint23_linear" x1="109.681" y1="0.329102" x2="109.681" y2="79.9179" gradientUnits="userSpaceOnUse">
<stop stop-color="#F6D000"/>
<stop offset="1" stop-color="#D27E00"/>
</linearGradient>
</defs>
</svg>
