<?xml version="1.0" encoding="utf-8"?>
<!-- Generator: Adobe Illustrator 24.0.0, SVG Export Plug-In . SVG Version: 6.00 Build 0)  -->
<svg version="1.1" id="Layer_2" xmlns="http://www.w3.org/2000/svg" xmlns:xlink="http://www.w3.org/1999/xlink" x="0px" y="0px"
	 viewBox="0 0 278.1 283" style="enable-background:new 0 0 278.1 283;" xml:space="preserve">
<style type="text/css">
	.st0{fill:url(#SVGID_1_);}
	.st1{fill:url(#SVGID_2_);}
</style>
<title>mes_icones-b</title>
<linearGradient id="SVGID_1_" gradientUnits="userSpaceOnUse" x1="146.2954" y1="147.2054" x2="154.9646" y2="155.8746">
	<stop  offset="0" style="stop-color:#FDBD30"/>
	<stop  offset="1" style="stop-color:#C66137"/>
</linearGradient>
<path class="st0" d="M150.6,145.4c-3.4,0-6.1,2.7-6.1,6.1c0,3.4,2.7,6.1,6.1,6.1c3.4,0,6.1-2.7,6.1-6.1S154,145.4,150.6,145.4
	C150.6,145.4,150.6,145.4,150.6,145.4z M150.6,149.5c1.1,0,2,0.9,2,2s-0.9,2-2,2s-2-0.9-2-2S149.5,149.5,150.6,149.5z"/>
<linearGradient id="SVGID_2_" gradientUnits="userSpaceOnUse" x1="87.2825" y1="104.2575" x2="186.2775" y2="203.2525">
	<stop  offset="0" style="stop-color:#FDBD30"/>
	<stop  offset="1" style="stop-color:#C66137"/>
</linearGradient>
<path class="st1" d="M162.6,95.9V83.6L97.7,93.9v119.8l64.9,10.5v-12.5h15.4V95.9H162.6z M101.8,210.2V97.4l56.7-9v130.9
	L101.8,210.2z M162.6,207.5V100h11.3v107.5L162.6,207.5L162.6,207.5z"/>
</svg>
