<?xml version="1.0" encoding="utf-8"?>
<!-- Generator: Adobe Illustrator 24.0.0, SVG Export Plug-In . SVG Version: 6.00 Build 0)  -->
<svg version="1.1" id="Calque_1" xmlns="http://www.w3.org/2000/svg" xmlns:xlink="http://www.w3.org/1999/xlink" x="0px" y="0px"
	 viewBox="0 0 24 24" style="enable-background:new 0 0 24 24;" xml:space="preserve">
<style type="text/css">
	.st0{fill:none;stroke:url(#SVGID_1_);stroke-width:2;stroke-linecap:round;stroke-linejoin:round;}
	.st1{fill:none;stroke:#FDBD30;stroke-width:2;stroke-linecap:round;stroke-linejoin:round;}
	.st2{fill:none;stroke:#C66137;stroke-width:2;stroke-linecap:round;stroke-linejoin:round;}
</style>
<linearGradient id="SVGID_1_" gradientUnits="userSpaceOnUse" x1="4.9279" y1="1.4279" x2="19.0721" y2="15.5721">
	<stop  offset="0" style="stop-color:#FDBD30"/>
	<stop  offset="1" style="stop-color:#C66137"/>
</linearGradient>
<path class="st0" d="M20.8,4.6c-0.5-0.5-1.1-0.9-1.8-1.2C18.4,3.1,17.7,3,17,3s-1.4,0.1-2.1,0.4c-0.7,0.3-1.3,0.7-1.8,1.2L12,5.7
	l-1.1-1.1C9.9,3.6,8.5,3,7.1,3C5.6,3,4.2,3.6,3.2,4.6c-1,1-1.6,2.4-1.6,3.9c0,1.5,0.6,2.9,1.6,3.9l1.1,1.1l7.8,7.8l7.8-7.8l1.1-1.1
	c0.5-0.5,0.9-1.1,1.2-1.8c0.3-0.7,0.4-1.4,0.4-2.1c0-0.7-0.1-1.4-0.4-2.1S21.4,5.1,20.8,4.6L20.8,4.6z"/>
<rect x="42.5" y="14.9" transform="matrix(0.9471 0.3208 -0.3208 0.9471 7.7818 -13.2939)" class="st1" width="3.5" height="4.2"/>
<rect x="42.5" y="19.4" transform="matrix(0.9471 0.3208 -0.3208 0.9471 9.2254 -13.0561)" class="st2" width="3.5" height="4.2"/>
</svg>
