<?xml version="1.0" encoding="utf-8"?>
<!-- Generator: Adobe Illustrator 24.0.0, SVG Export Plug-In . SVG Version: 6.00 Build 0)  -->
<svg version="1.1" id="Calque_1" xmlns="http://www.w3.org/2000/svg" xmlns:xlink="http://www.w3.org/1999/xlink" x="0px" y="0px"
	 viewBox="0 0 157.97 145.34" style="enable-background:new 0 0 157.97 145.34;" xml:space="preserve">
<style type="text/css">
	.st0{fill:none;stroke:#F9B233;stroke-width:3;stroke-linecap:round;stroke-linejoin:round;stroke-miterlimit:10;}
</style>
<g>
	<path class="st0" d="M117.15,78.74c0-19.92-15.33-36.25-34.83-37.86C59.45,39,39.9,58.09,41.24,81.01
		c0.82,13.93,9.15,25.85,21,31.75c1.25,0.62,2.05,1.88,2.05,3.27v20.31c0,4.13,3.38,7.5,7.5,7.5H86.6c4.13,0,7.5-3.38,7.5-7.5
		v-20.48c0-1.31,0.75-2.5,1.93-3.08C108.55,106.57,117.15,93.66,117.15,78.74z"/>
	<line class="st0" x1="64.26" y1="115.51" x2="94.1" y2="115.51"/>
	<line class="st0" x1="79.84" y1="1.5" x2="79.84" y2="16.21"/>
	<line class="st0" x1="16.21" y1="78.71" x2="1.5" y2="78.71"/>
	<line class="st0" x1="156.47" y1="78.71" x2="141.76" y2="78.71"/>
	<line class="st0" x1="124.4" y1="123.18" x2="134.38" y2="133.17"/>
	<line class="st0" x1="24.8" y1="23.59" x2="35.62" y2="34.4"/>
	<line class="st0" x1="34.4" y1="123.18" x2="24" y2="133.58"/>
	<line class="st0" x1="133.58" y1="24" x2="123.58" y2="34"/>
</g>
<circle class="st0" cx="78.98" cy="79.05" r="10.55"/>
</svg>
