<?xml version="1.0" encoding="utf-8"?>
<!-- Generator: Adobe Illustrator 24.0.0, SVG Export Plug-In . SVG Version: 6.00 Build 0)  -->
<svg version="1.1" id="Calque_1" xmlns="http://www.w3.org/2000/svg" xmlns:xlink="http://www.w3.org/1999/xlink" x="0px" y="0px"
	 viewBox="0 0 24 24" style="enable-background:new 0 0 24 24;" xml:space="preserve">
<style type="text/css">
	.st0{fill:none;stroke:url(#SVGID_1_);stroke-width:2;stroke-linecap:round;stroke-linejoin:round;}
	.st1{fill:none;stroke:url(#SVGID_2_);stroke-width:2;stroke-linecap:round;stroke-linejoin:round;}
	.st2{fill:none;stroke:url(#SVGID_3_);stroke-width:2;stroke-linecap:round;stroke-linejoin:round;}
</style>
<linearGradient id="SVGID_1_" gradientUnits="userSpaceOnUse" x1="2.7574" y1="2.7574" x2="21.2426" y2="21.2426">
	<stop  offset="0" style="stop-color:#FDBD30"/>
	<stop  offset="1" style="stop-color:#C66137"/>
</linearGradient>
<path class="st0" d="M17,2H7C4.2,2,2,4.2,2,7v10c0,2.8,2.2,5,5,5h10c2.8,0,5-2.2,5-5V7C22,4.2,19.8,2,17,2z"/>
<linearGradient id="SVGID_2_" gradientUnits="userSpaceOnUse" x1="8.5077" y1="8.4213" x2="15.5788" y2="15.4923">
	<stop  offset="0" style="stop-color:#FDBD30"/>
	<stop  offset="1" style="stop-color:#C66137"/>
</linearGradient>
<path class="st1" d="M16,11.4c0.1,0.8,0,1.7-0.4,2.4c-0.4,0.7-1,1.4-1.8,1.7c-0.8,0.4-1.6,0.5-2.4,0.4c-0.8-0.1-1.6-0.5-2.2-1.1
	c-0.6-0.6-1-1.4-1.1-2.2c-0.1-0.8,0-1.7,0.4-2.4c0.4-0.8,1-1.4,1.7-1.8C10.9,8,11.8,7.9,12.6,8c0.8,0.1,1.6,0.5,2.2,1.1
	C15.5,9.7,15.9,10.5,16,11.4z"/>
<linearGradient id="SVGID_3_" gradientUnits="userSpaceOnUse" x1="16.7954" y1="5.7904" x2="18.2146" y2="7.2096">
	<stop  offset="0" style="stop-color:#FDBD30"/>
	<stop  offset="1" style="stop-color:#C66137"/>
</linearGradient>
<path class="st2" d="M17.5,6.5L17.5,6.5"/>
</svg>
