<?xml version="1.0" encoding="utf-8"?>
<!-- Generator: Adobe Illustrator 24.0.0, SVG Export Plug-In . SVG Version: 6.00 Build 0)  -->
<svg version="1.1" id="Layer_2" xmlns="http://www.w3.org/2000/svg" xmlns:xlink="http://www.w3.org/1999/xlink" x="0px" y="0px"
	 viewBox="0 0 278.1 283" style="enable-background:new 0 0 278.1 283;" xml:space="preserve">
<style type="text/css">
	.st0{fill:url(#SVGID_1_);}
	.st1{fill:url(#SVGID_2_);}
	.st2{fill:url(#SVGID_3_);}
</style>
<title>mes_icones-b</title>
<linearGradient id="SVGID_1_" gradientUnits="userSpaceOnUse" x1="87.687" y1="117.9647" x2="180.8813" y2="211.1589">
	<stop  offset="0" style="stop-color:#FDBD30"/>
	<stop  offset="1" style="stop-color:#C66137"/>
</linearGradient>
<path class="st0" d="M204.9,181.1c-0.6-0.7-1.4-1.1-2.4-1.1c-0.4,0-0.8,0.1-1.1,0.2c-7.1,2.7-14.6,4.1-22.2,4.1
	c-0.9,0-1.7,0-2.6-0.1c-34.1-1.4-60.5-30.2-59.1-64.2c0.4-8.8,2.6-17.5,6.6-25.4c0.8-1.5,0.2-3.3-1.3-4.1c-0.9-0.4-1.9-0.5-2.8,0
	c-32.5,16.2-45.8,55.8-29.5,88.3c11.1,22.2,33.6,36.2,58.4,36.4h0.6c22.6,0,43.6-11.5,55.6-30.6
	C205.8,183.5,205.7,182.1,204.9,181.1z M113.4,125.7c1.6,33.8,29.3,61.3,63.1,62.6c0.9,0,1.8,0.1,2.7,0.1c7,0,14-1.1,20.7-3.3
	c-11.6,16.3-30.4,26-50.4,26h-0.5c-34.1-0.3-61.5-28.2-61.2-62.3c0.2-22,12.1-42.3,31.3-53.2C114.8,105.1,112.9,115.4,113.4,125.7z"
	/>
<linearGradient id="SVGID_2_" gradientUnits="userSpaceOnUse" x1="143.1741" y1="113.0132" x2="162.4357" y2="132.2749">
	<stop  offset="0" style="stop-color:#FDBD30"/>
	<stop  offset="1" style="stop-color:#C66137"/>
</linearGradient>
<path class="st1" d="M144.7,124.5l-1.2,6.8c-0.2,1.2,0.6,2.4,1.8,2.6c0.1,0,0.2,0,0.4,0c0.3,0,0.7-0.1,1-0.3l6.1-3.2l6.1,3.2
	c0.3,0.2,0.7,0.2,1,0.3c1.2,0,2.2-1,2.2-2.2c0-0.1,0-0.2,0-0.4l-1.1-6.8l4.9-4.8c0.9-0.8,0.9-2.2,0.1-3.1c-0.3-0.4-0.8-0.6-1.3-0.7
	l-6.8-1l-3.1-6.2c-0.5-1.1-1.9-1.6-3-1c-0.5,0.2-0.8,0.6-1,1l-3.1,6.2l-6.8,1c-1.2,0.2-2.1,1.3-1.9,2.5c0.1,0.5,0.3,0.9,0.7,1.3
	L144.7,124.5z M150.6,117l2.3-4.6l2.3,4.6c0.3,0.7,0.9,1.1,1.7,1.2l5.1,0.7l-3.6,3.6c-0.5,0.5-0.8,1.3-0.6,2l0.9,5l-4.5-2.4
	c-0.6-0.3-1.4-0.3-2.1,0l-4.5,2.4l0.9-5c0.1-0.7-0.1-1.5-0.6-2l-3.7-3.6l5-0.7C149.6,118.1,150.2,117.7,150.6,117L150.6,117z"/>
<linearGradient id="SVGID_3_" gradientUnits="userSpaceOnUse" x1="168.2974" y1="129.3329" x2="179.5079" y2="140.5434">
	<stop  offset="0" style="stop-color:#FDBD30"/>
	<stop  offset="1" style="stop-color:#C66137"/>
</linearGradient>
<path class="st2" d="M168.6,140.4h0.1l3.6-0.4l2.3,2.7c0.2,0.2,0.4,0.4,0.6,0.5c0.9,0.3,1.8-0.1,2.2-0.9c0-0.1,0.1-0.2,0.1-0.3
	l0.8-3.5l3.3-1.4c0.9-0.3,1.3-1.3,0.9-2.2c-0.1-0.3-0.4-0.6-0.7-0.8l-3.1-1.8l-0.3-3.6c-0.1-0.9-0.9-1.6-1.8-1.5
	c-0.4,0-0.7,0.2-1,0.4l-2.7,2.4l-3.5-0.8c-0.1,0-0.3,0-0.4,0c-0.9,0-1.7,0.8-1.7,1.7c0,0.2,0,0.5,0.1,0.7l1.5,3.3l-1.9,3.1
	c-0.5,0.8-0.2,1.8,0.6,2.3C168.1,140.3,168.3,140.4,168.6,140.4z M176.8,136.2c-0.5,0.2-0.9,0.7-1,1.2l-0.4,1.9l-1.3-1.5
	c-0.3-0.4-0.8-0.6-1.3-0.6h-0.1l-2,0.2l1-1.6c0.3-0.5,0.3-1.1,0.1-1.6l-0.8-1.8l1.9,0.4c0.1,0,0.3,0,0.4,0c0.4,0,0.8-0.2,1.1-0.4
	l1.4-1.3l0.1,1.9c0,0.6,0.4,1,0.8,1.3l1.7,1L176.8,136.2z"/>
</svg>
