<?xml version="1.0" encoding="utf-8"?>
<!-- Generator: Adobe Illustrator 24.0.0, SVG Export Plug-In . SVG Version: 6.00 Build 0)  -->
<svg version="1.1" id="Calque_1" xmlns="http://www.w3.org/2000/svg" xmlns:xlink="http://www.w3.org/1999/xlink" x="0px" y="0px"
	 viewBox="0 0 24 24" style="enable-background:new 0 0 24 24;" xml:space="preserve">
<style type="text/css">
	.st0{fill:url(#SVGID_1_);}
</style>
<linearGradient id="SVGID_1_" gradientUnits="userSpaceOnUse" x1="8.0139" y1="1.5421" x2="22.4279" y2="15.956">
	<stop  offset="0" style="stop-color:#FDBD30"/>
	<stop  offset="1" style="stop-color:#C66137"/>
</linearGradient>
<path class="st0" d="M23,2c0-0.1,0-0.2-0.1-0.3c0,0,0-0.1,0-0.1c0-0.1-0.1-0.2-0.2-0.3c-0.1-0.1-0.2-0.1-0.3-0.2c0,0-0.1,0-0.1,0
	c-0.1,0-0.2,0-0.3-0.1c0,0-0.1,0-0.1,0c-0.1,0-0.2,0-0.3,0.1L1.7,8C1.3,8.1,1,8.5,1,8.9s0.2,0.8,0.6,1l8.6,3.9l3.8,8.7
	c0.2,0.4,0.5,0.6,0.9,0.6c0,0,0,0,0,0c0.4,0,0.8-0.3,0.9-0.7l7.1-20C23,2.3,23,2.2,23,2C23,2,23,2,23,2z M18.2,4.4l-7.4,7.4L4.7,9.1
	L18.2,4.4z M14.9,19.3l-2.7-6.1l7.4-7.4L14.9,19.3z"/>
</svg>
